<svg width="61" height="70" viewBox="0 0 61 70" xmlns="http://www.w3.org/2000/svg"><title>Shape</title><desc>Created with Sketch.</desc><path d="M56.608 65.246s.67-.172-.238-1.465c-.908-1.292-3.553-2.897-3.553-2.897l-.085.104c.057-.175.078-.391.037-.671-.267-1.804-1.182-1.841-1.182-1.841s.913-2.703-.693-2.796c-1.605-.094-2.645-.235-2.645-.235s.866-4.637-.523-4.863c-1.389-.225-1.936.048-1.936.048s.679-2.796-.56-2.578c-1.238.218-1.814.152-1.814.152s.141-2.409-1.333-2.285l-1.474.124s.641-1.88-1.256-1.377c0 0-.634-2.115-.682-2.682l-.461.534.026-.267s3.712-12.87 5.327-14.032c0 0 4.674-.051 4.437-1.514-.236-1.465-3.184-1.217-3.184-1.217s.245-1.161.822-1.096c.574.066 4.203 1.13 3.701-.767-.1-.377-.227-.645-.367-.838 1.431.238 3.484.368 3.302-.892-.275-1.917-2.457-2.076-4.468-1.565l1.433-3.317s-.282-.662-1.217.445c-.934 1.106-1.642 2.193-1.642 2.193s.877-3.155-.775-2.446c-1.654.709-.915 2.701-.915 2.701s-1.635-.434-2.011.512c-.376.946.569 2.691.569 2.691s-1.9-.866-2.05 1.429c-.332-2.597-3.089-.082-3.089-.082s-.65-.973.143-1.039c.792-.067 3.729-.428 3.237-2.214-.493-1.783-2.778-.45-2.778-.45s.44-4.259.044-4.911c-.396-.651-1.329 4.563-1.329 4.563s-2.551-1.84-3.191.04c-.641 1.881 1.73 2.935 1.73 2.935s-2.597.334-2.415 2.486c.073.866.459 1.259.892 1.424-.803.148-1.633.615-1.521 1.94.209 2.493 2.097 1.878 2.097 1.878s-.557.169-1.007.57c-1.015-1.516-3.433-5.311-2.247-5.319 1.483-.011 1.852-1.068 1.594-2.759-.255-1.691-2.349.54-2.434.889-.085.35-.473-1.558-.473-1.558 1.954.178 2.293-1.22 2.178-2.579-.09-1.08-1.361-.838-1.883-.692.648-.225 2.477-1.049 2.021-3.086-.548-2.465-3.361.739-3.361.739.038-.917-.814-2.899-1.381-2.851-.568.048.153 3.183.153 3.183-.472-.187-2.031.285-2.001 1.994.021 1.217 1.23 1.465 1.927 1.508-.459.074-1.095.401-1.207 1.628-.093 1.01.539 1.561 1.17 1.86-.381.12-.668.61-.505 1.965.38 3.164 3.637 1.179 3.684 1.744.042.5 1.872 3.323 2.308 3.992-.068.184-.114.383-.094.617.114 1.36 1.493 1.473 1.493 1.473s-1.493-.103-1.227 1.701c.267 1.803 2.598 1.035 2.598 1.035l.245 4.544c-13.22-14.115-15.169-28.681-15.244-32.246-.078-3.645-1.013-2.541-1.013-2.541-.305-3.628-1.287-3.089-1.287-3.089-.068-2.163-1.693-3.852-1.693-3.852-.505 21.479 8.514 35.177 14.006 41.496-1.056-.313-3.238-.994-3.437-1.322 0 0-4.258-9.916-5.298-11.427 0 0 1.859 8.52 2.651 9.823 0 0-1.54-.669-1.927-1.208-.387-.539-.454-1.332-1.522-3.182-1.068-1.852-3.234-5.907-4.351-6.941-.756-.698 2.575 7.546 3.994 9.481l-1.324-.801s-5.928-11.048-7.435-13.757c0 0 2.917 8.886 4.78 12.039 0 0-1.72-.083-1.862-.414-.143-.33-.655-2.342-1.656-3.399-1.002-1.057-6.56-7.437-6.365-11.905 0 0-1.313 2.05 1.054 7.102 2.364 5.052 4.518 4.87 4.615 7.374 0 0-5.859-3.161-8.021-3.093 0 0 2.494 1.16 7.673 4.378 0 0 1.229 1.038.681 1.312-.547.275-5.072.769-5.411.798-.067.005-.151.06-.239.132-1.339-1.07-2.296-1.725-2.141-1.302.13.357.76 1.088 1.575 1.94l-.242.345.533-.045c1.964 2.008 4.752 4.507 4.752 4.507l-1.37.001c-.974-2.086-9.77-4.884-9.77-4.884.359.197 8.193 5.132 8.193 5.132-8.143-.456-8.613.725-8.613.725 4.722-.853 9.503.342 9.503.342.209 1.123-6.655 5.011-6.655 5.011 5.299-.788 7.931-4.776 7.931-4.776l1.152.131c.237 1.464-5.219 5.804-5.219 5.804 4.277-.702 7.07-5.504 7.07-5.504l2.966-.02c-.292.597-6.758 6.504-6.758 6.504 4.259-.928 8.354-6.524 8.354-6.524l2.182.159c.068.794-7.182 6.882-7.182 6.882 4.241-1.155 8.373-6.297 8.373-6.297l2.655.347-7.97 7.062c4.855-.635 8.005-6.609 9.478-6.732 1.391-.116 7.55.89 8.234 1.002l-1.396 1.619 2.296.148s.692 1.427 1.55.784c.859-.643-.613 2.219.417 2.247 1.029.028 2.513.017 2.513.017s-1.293 2.277-.225 2.757c1.067.482 3.118.424 3.118.424s-.545 3.014.512 3.382c1.059.367 2.646.234 2.646.234s-.641 3.099.295 3.515c1.304.574 4.229.099 4.229.099s.264.076.591.097c-.327.103-.732.208-1.241.302 0 0 1.182 3.209 2.555 4.578 1.37 1.37 3.148 3.503 3.148 3.503l.414-1.863s2.144 1.077 1.18-.897l-.965-1.972zm-34.298-26.451c.058.096-.265.246-.812.425l-.665-.585c.612-.064 1.33-.081 1.477.159zm-1.891-.108l.556.693c-.535.155-1.186.323-1.87.489l-.899-.913c.694-.051 1.292-.113 1.704-.187l.51-.083zm-2.911-2.684c.718.396 1.825 1.329 1.825 1.329l-2.307.435c-.631-.63-1.199-1.173-1.629-1.531.963-.246 1.787-.41 2.11-.233zm.602 4.102c-.585.136-1.164.266-1.692.382-.543-.445-1.112-.917-1.668-1.382.775-.017 1.57-.044 2.314-.081.344.361.697.725 1.046 1.081zm-3.316-3.71c.26.39.717.938 1.269 1.552l-2.202.413-1.611-1.359c.739-.112 1.665-.37 2.543-.606zm-5.841.897l2.935-.246.107-.013c.366.405.81.901 1.288 1.437l-2.421.449c-.638-.556-1.292-1.112-1.91-1.626zm5.793 5.219c-.262-.351-1.876-1.842-3.663-3.403.651.023 1.661.028 2.784.012l1.433 1.61-1.028.223c-.211.048.278-.004 1.137-.101l1.889 2.129c-1.256-.009-2.551-.47-2.551-.47zm4.582.186c-.414-.216-1.444-1.017-2.64-1.991l1.818-.201c1.308 1.318 2.436 2.398 2.436 2.398l-1.614-.206zm3.693.487c-.417.107-1.838-1.231-3.4-2.796.697-.07 1.385-.134 2.016-.183l2.668 3.328s-.614-.52-1.284-.35zm3.353.519c-.607-.666-2.272-2.177-3.831-3.56.692-.04 1.255-.052 1.589-.018 1.755.178 6.203 2.82 8.792 3.083 1.072 1.111 1.881 1.83 2.261 2.153l-8.811-1.658zm9.303 1.75l-.025-.005.053-.028-.028.033zm1.785-15.124s3.844-.438 3.588-2.128c-.258-1.691-2.543-.358-3.194.04l.112-1.378s3.034.226 3.235-1.787c.134 1.744 1.556 1.727 1.556 1.727s-.805 1.95-1.79 4.548v-.059c-.191-2.267-3.411.173-3.411.173l-.095-1.135zm.174 12.853l-.006-.054.031-.046.025.042-.05.058zm.046-10.246c.224-.359 2.035.157 2.872-.486-.337.906-.684 1.864-1.019 2.827l.027-.331c.054-2.059-1.654-.66-1.654-.66s-.529-.868-.226-1.35zm.068 3.532s1.028.311 1.536-.466c-.473 1.392-.909 2.767-1.24 3.987l-.296-3.521zm21.669 2.515c-1.94-4.061-4.127-3.393-5.963-4.406-.718-.396-1.247-1.265-3.165-2.359-.773-.441-1.587-.301-2.287.02l-.009-.169s-.019-1.597-.937-1.633c-.916-.037-1.746 2.315-.875 3.155 0 0-3.975 2.96-2.099 8.965 1.874 6.006 6.637 8.345 10.961 6.841 4.325-1.506 6.315-6.352 4.374-10.413z" fill="#0038B8"/></svg>