<svg width="70" height="70" viewBox="0 0 70 70" xmlns="http://www.w3.org/2000/svg">
    <g fill="#0038B8">
        <path d="M69.967 35c0-10.534-4.702-19.972-12.097-26.388v-.077h-.083c-6.127-5.282-14.081-8.501-22.785-8.501-19.28 0-34.968 15.686-34.968 34.966 0 9.338 3.638 18.121 10.241 24.727 6.605 6.602 15.386 10.239 24.727 10.239 8.437 0 16.4-2.993 22.733-8.433h.136v-.121c.629-.548 1.261-1.09 1.856-1.685 6.603-6.606 10.24-15.389 10.24-24.727zm-15.941-26.465h-38.05c5.364-3.867 11.923-6.172 19.025-6.172 7.103.001 13.66 2.305 19.024 6.172zm-40.917 2.329h43.783c2.467 2.239 4.587 4.841 6.279 7.733h-56.341c1.691-2.892 3.813-5.493 6.278-7.733zm-7.51 10.061h58.803c2.053 4.268 3.236 9.03 3.236 14.074 0 4.986-1.146 9.785-3.246 14.145h-58.783c-2.101-4.359-3.246-9.158-3.246-14.144 0-5.045 1.184-9.806 3.236-14.075zm29.403 46.711c-6.903 0-13.463-2.158-18.963-6.104h37.924c-5.5 3.946-12.058 6.104-18.961 6.104zm21.838-8.433h-43.68c-.414-.373-.842-.725-1.241-1.122-1.998-2.002-3.673-4.23-5.068-6.608h56.297c-1.395 2.378-3.07 4.606-5.069 6.608-.397.398-.826.751-1.24 1.122zM27.263 35.002l-3.009 5.203-.802 1.385h7.622l3.127 5.408.796 1.379.798-1.379 3.129-5.408h7.623l-.802-1.385-3.008-5.203 3.008-5.202.802-1.388h-7.622l-3.129-5.409-.798-1.381-.796 1.381-3.127 5.409h-7.622l.802 1.388 3.008 5.202zm-.611 4.737l1.676-2.897.899 1.557.776 1.34h-3.351zm8.348 4.957l-1.797-3.105h3.5919999999999996l-1.795 3.105zm8.346-4.957h-3.351l.776-1.34.9-1.557 1.675 2.897zm0-9.476l-1.674 2.896-.9-1.556-.776-1.341h3.35zm-8.346-4.953l1.795 3.103h-3.5919999999999996l1.797-3.103zm-2.866 4.953h5.731l1.311 2.266 1.43 2.473-1.43 2.472-1.311 2.265h-5.731l-1.309-2.265-1.431-2.472 1.431-2.473 1.309-2.266zm-2.13 0l-.776 1.341-.899 1.556-1.676-2.896h3.351z"/>
    </g>
</svg>