<svg width="61" height="70" viewBox="0 0 61 70" xmlns="http://www.w3.org/2000/svg">
    <path d="M20.03 52.609l10 17.321 10-17.321h20l-10-17.321 10-17.321h-20l-10-17.321-10 17.321h-20l10 17.321-10 17.321h20zm10 15.781l-9.111-15.781h18.222l-9.112 15.781zm-9.556-16.551l-9.556-16.551 9.556-16.551h19.112l9.556 16.551-9.556 16.551h-19.112zm38.223 0h-18.223l9.112-15.781 9.112 15.781zm0-33.102l-9.111 15.781-9.112-15.781h18.222zm-28.667-16.551l9.111 15.781h-18.222l9.111-15.781zm-28.667 16.551h18.222l-9.112 15.781-9.111-15.781zm18.223 33.102h-18.223l9.111-15.781 9.112 15.781z"
          stroke="#0038B8" fill="#007AFF"/>
</svg>