<svg width="59" height="70" viewBox="0 0 59 70" xmlns="http://www.w3.org/2000/svg">
    <path d="M28.621 70c-3.875 0-12.685-.94-13.155-2.703-.47-1.762 1.175-3.052 1.762-3.522.588-.468 7.164-2.347 7.869-3.289.705-.938 3.406-3.052 3.406-7.634 0-4.58-.352-9.748-1.526-11.627 0 0 1.761-2.82 1.644-4.229-.118-1.407-.118-2.935-.823-3.052-.705-.118-1.878.47-2.349-.118-.469-.587-1.878-1.173-2.582-1.526-.705-.352-2.232.353-2.701 0-.47-.352-1.645-1.175-2.468-1.645-.821-.47-2.936-.47-3.64-.702-.704-.237-.587-1.059-1.174-1.644-.588-.589-1.763-1.175-2.818-1.762-1.056-.588-1.41-1.293-1.88-2.233-.47-.94-2.114-3.054-2.466-3.171-.353-.116-1.292-.587-1.41-1.527-.118-.94-.821-2.935-1.292-3.405-.469-.472-.939-1.998-.939-2.939 0-.94-.824-3.289-.824-4.346 0-1.056-.351-2.112-.704-2.584-.352-.468-.588-1.878-.235-2.818.352-.941-.588-1.529-.235-1.761.352-.236 3.171 0 3.171 0s2.349-.119 2.114.351c-.235.47-.586.588-.586 1.177 0 .584.351 2.346-.705 3.757 0 0-.705 3.169-.47 4.227.235 1.056 1.41 2.701 1.41 3.522 0 .824.235 2.703.939 3.408.706.705 1.176 1.643 1.41 1.998.234.352 1.056 1.994 1.996 2.464s1.527 1.056 1.88 1.644c.351.587 1.526 2.115 2.701 2.582 1.174.472 1.996.941 2.466 1.413.47.467.588.82 1.645.82s2.818.235 3.406.587c.587.352.94 1.293 2.349 1.293 1.409 0 1.409-.354 2.114-.235.704.116 1.174.82 1.645.705.469-.119 1.292-.94 1.292-1.998 0-1.056.588-2.113-.47-2.231-1.058-.116-1.292.353-2.466-.234-1.174-.588-2.114-.941-3.172-.941-1.056 0-1.409-.233-2.349-.702-.939-.472-2.231-1.412-3.288-1.528-1.057-.118-2.115-.353-2.584-1.056-.471-.705-2.116-1.761-2.819-2.468-.706-.703-1.644-.821-1.644-1.878 0-1.059-.705-3.643-.94-3.994-.235-.352-.705-.94-.705-1.878 0-.94 0-2.82-.235-3.527-.234-.702.119-1.289-.234-1.759-.352-.47-1.056-.941-1.056-2.231 0-1.293.587-2.117.587-2.117s-.587-.821-.47-1.172h4.934s.116 1.172-.353 1.407c0 0-.235.354 0 1.059s0 1.763-.235 2.233c-.235.467-.821.938-.821 1.408v1.644c0 .703-.235 1.643 0 2.466.235.821.586 1.175.586 2.115 0 .938.119 2.231.47 2.701.353.47 1.292.705 1.526 1.76.236 1.059 1.528 1.88 2.233 2.234.704.352 1.175.702 2.347 1.292 1.175.587 1.411 1.056 2.585 1.056s1.997.235 2.82.705c.821.47 1.409.586 2.584.705 1.174.116.939-.588 1.526-.47.588.116 1.41.94 1.528.47.118-.47 0-3.054-.588-3.289-.587-.233-1.174.705-1.996.354-.822-.354-1.997-1.528-2.702-1.528-.705 0-1.761.12-3.171-.941-1.41-1.056-3.406-2.231-3.64-3.876 0 0-1.057-.702-1.057-2.231 0 0-1.056-3.757-.939-5.048l.116-.94s-.938-.824-.938-1.88.585-1.528.352-1.998c-.235-.468-.94-1.407-.352-1.407h4.697s.352.939-.116 1.407c0 0 .585 2.114 0 2.466-.588.356-1.059 1.177-1.176 1.763-.117.589-.117.821-.117 1.41 0 .587-.235 2.113 0 2.466.235.354 1.174 2.467 1.41 3.289.234.824 1.292 2.347 1.996 2.467.705.116 1.292 0 1.996.235.705.235.94 1.291 1.879 1.291.94 0 1.762 0 2.349.119.586.116 1.644.587 1.761.116.118-.47.118-3.289-.587-3.876-.706-.589-2.936-.235-3.759-.705-.822-.47-1.526-.705-1.761-1.41-.235-.702-.588-2.934-.588-3.759 0-.821-.587-1.289-.587-1.759s-.705-1.528-.588-2.231c.118-.707.588-1.059.471-1.647-.119-.587-.94-1.292-.353-1.41.588-.116 4.697.119 4.697.119s.706.353-.234 1.177c0 0 .352 1.643-.118 2.464s-.705 1.41-.705 2.115c0 .705-.116.705-.116 1.644s0 2.466.703 2.7c.705.235 1.41.587 1.997.47.588-.116 1.878-.353 1.409-1.528-.47-1.175-.939-1.761-.47-2.231.47-.47.587-2.112.234-2.464-.352-.354-.234-1.059-.234-1.059s-.706-.588-.588-1.998c.119-1.41.354-2.113.354-2.113s-.705-.587-.705-1.293l5.285.236s.116 1.058-.353 1.528c0 0 .353.939.235 1.642-.116.707-.941 1.763-1.056 2.231-.119.472.351.826-.119 1.293-.47.47-.116 1.292.119 1.996.235.706-.235 1.292-.352 1.88-.117.589-.237 1.644.117 1.763.351.116 1.996.352 2.583-.119.588-.47.706-1.056 1.174-1.293.47-.235.823-1.761.47-2.231-.352-.47-.47-1.526-.47-1.526s-.939-1.526-.939-2.346c0-.824.471-1.528.471-1.528l-.471-1.292h4.815s.235.938-.117 1.526c-.352.587.705 2.114-.47 3.525 0 0-.118.705-.47 1.292 0 0 .235 1.526-.352 2.582-.588 1.058-1.293 1.763-1.528 2.349-.234.588-.94.588-1.526.588-.588 0-2.349.352-2.7.821-.354.472-.94 1.174-.94 1.88 0 .705-.354 1.644 0 1.996.352.351 1.292 0 2.231 0 .939 0 2.349-.116 3.171-.706.824-.586.706-.469 1.88-.586 1.175-.119 2.231-1.528 2.466-2.469.236-.938.588-1.407.94-1.877.354-.47.822-2.938.706-3.641-.117-.705-.47-1.996-.47-1.996s-.94-2.349 0-3.759c0 0-1.292-1.645-.821-1.526.468.116 4.815 0 4.815 0s.82.351 0 1.292c0 0 .82 1.879-.47 3.64 0 0 .351.706-.118 1.292 0 0-.706 1.412-.823 1.88-.116.47-1.057 2.935-.94 3.406.119.47.119 1.761-.587 2.114-.705.354-.822 1.88-3.876 3.641 0 0-.939.94-1.878.94 0 0-2.937.354-3.525.821-.587.47-1.292.119-1.645 0-.351-.116-1.056.354-1.056.824s-.118 2.231.586 2.346c.706.119.589.119 1.645-.116 1.057-.235 1.762.116 2.466 0 .705-.119 1.292-.94 1.88-1.056.588-.118 1.292.116 2.114 0 .821-.118 3.171-.94 3.406-1.41.235-.469.469-.82.94-.82.469 0 2.113-1.177 2.467-1.763.352-.587.588-1.41 1.059-1.88.467-.47 1.407-1.644 1.407-2.231s-.47-1.174 0-1.88c.47-.702.705-2.582.705-3.404 0-.825.117-1.293-.235-1.646-.352-.351-.352-.821-.352-.821s-.94-.938-.94-1.644c0-.702.587-1.996.587-1.996s-1.172-1.057-.705-1.41c.47-.354 4.699-.116 4.699-.116s.705.82-.119 1.407c0 0 1.175 2.115-.234 3.525 0 0 0 1.761-.234 2.349-.236.587-.706 1.996-.706 3.054 0 1.056 0 1.292-.47 2.464-.467 1.177-1.292 2.349-1.407 3.054-.119.706-.119 1.528-1.059 1.996-.938.472-2.701 1.763-3.052 2.585-.354.821-.941 1.525-1.645 1.525-.705 0-1.527.354-2.936.824-1.409.468-1.762 1.175-2.7 1.41-.94.235-1.528-.354-2.701 0-1.175.352-2.349 1.292-2.819 1.174-.47-.118-.705-1.174-1.059-.47-.351.705-.704 1.878-.351 3.052.351 1.174 1.292 1.88 1.526 1.41.235-.47.588-.94 1.292-.94.706 0 1.763.354 2.584 0 .823-.353 1.057-1.056 1.644-1.056s.587.468 1.879 0c1.292-.47 3.641-2.114 4.229-2.231.588-.118.94-.235 1.878-.821.94-.588 2.116-1.293 2.349-1.998.236-.705.704-1.058 1.174-1.174.47-.116 2.232-1.645 2.467-2.347.234-.707 1.056-1.293 1.409-1.646.354-.352 1.176-1.292 1.176-1.878 0-.589-.118-2.469.234-2.82.352-.354 1.408-1.88 1.408-2.467 0-.586-.705-2.233-.116-3.405.586-1.174.47 0 .47 0s-1.41-.705-1.059-.821c.353-.118-.938-1.059-.938-1.88 0-.824.468-2.114.468-2.114s-.468-.941-.352-1.527c.118-.588 4.465 0 4.465 0s.116 1.057 0 1.408c-.119.354.234 1.059.116 2.349-.116 1.293-.82 1.293-.82 1.763v1.408c0 .586-.589 2.233-.706 2.819-.118.587.234 2.231 0 3.052-.234.824-1.174 1.999-1.528 2.701-.352.707-.82 1.528-.82 2 0 .467-.588 2.113-1.41 2.347-.822.234-1.996 1.292-2.584 1.877-.588.589-.706 2.585-1.763 2.701-1.056.12-3.524 1.998-3.524 1.998s-.588 1.645-1.644 1.173c-1.056-.468-3.876 1.528-3.876 1.528s-1.409.941-2.231.587c0 0-2.818.589-3.525 1.059-.704.47-1.056.94-1.76.47-.705-.47-1.058-.235-1.528.706-.468.94-.664 4.619 1.37 7.127 0 0-2.31 6.497-1.839 11.077.468 4.58 2.231 7.753 5.284 8.81 3.053 1.056 7.399 2.466 7.634 5.402 0 0 .234 1.407-3.525 2.231-3.758.82-11.509.938-11.509.938z"
          fill="#007AFF"/>
</svg>