<svg width="74" height="91" viewBox="0 0 74 91" xmlns="http://www.w3.org/2000/svg"><path d="M5.196 15.227l45.639-10.326c-4.71-2.598-8.447-4.023-17.921-3.893-9.474.13-21.826 5.044-27.718 14.219zm48.27-8.72l-49.712 11.238c-1.831 3.628-2.986 7.786-3.226 12.498-.547 10.711 6.957 17.838 11.778 25.405 4.851 7.614 5.569 15.173 2.569 26.853 7.044 6.09 20.816 5.085 32.734 8.5.52-5.96-.359-12.239 1.848-14.418 3.205-3.165 9.266 4.147 13.219-.787 3.489-4.356-2.042-5.335 3.101-10.892 1.239-1.339-2.348-1.83-2.381-3.054-.028-1.064 2.726.413 3.383-.881.689-1.356-1.381-3.76-.188-5.226 1.466-1.802 5.289 1.675 6.735-1.7 1.211-2.827-4.199-8.554-6.829-13.977-1.359-2.804 1.336-6.136 1.222-9.381-.346-9.827-6.092-18.68-14.253-24.177z" fill="#292b2c"/></svg>