<svg width="70" height="65" viewBox="0 0 70 65" xmlns="http://www.w3.org/2000/svg"><path d="M69.963 43.19c-.409-1.83-7.558-34.257-7.558-34.257s.102-1.827-1.123-2.439c-1.227-.61-2.657-.102-2.657-.102s-1.531-5.996-2.349-6.303c-.816-.303-1.634.203-1.634.917 0 .709.92 6.201.92 6.201s-1.125.1-1.431.507c0 0-11.236 2.439-13.176 3.456-1.941 1.016-11.336 7.319-16.955 7.421-5.618.102-10.929-.305-14.095-1.83 0 0 .204-.709-1.022-1.016-1.225-.303-2.145 0-2.145 0s-.306-4.268-.92-4.268l-.409-3.459s-.715-.509-1.634-.102v3.761s-.409-.101-.613 3.964c0 0-4.39.409-2.757 1.83 0 0-.409 0-.409.813l2.246 37.004s-.03.066.379.156c0 0-1.634 1.084.273 1.898l2.45.27s-.227 3.118.772 3.614c0 0 .045 3.074.227 3.253.182.18 1.362.543 1.771-.179l-.092-3.299s.409 0 .454-.406c.046-.409.136-3.074.136-3.074s2.678-.404 2.996-1.039c.318-.632-.454-1.308-.454-1.308s.363-.318.318-.543c-.045-.228-.181-1.085-.181-1.085s5.659-.801 7.906.114c2.247.917 7.251 1.322 11.134.61 3.882-.712 9.294-2.847 11.233-3.965 1.942-1.118 15.832-7.625 18.284-8.232 0 0 .409 2.336.92 2.744 0 0-.306 1.221.714 1.729 1.021.507 3.065.507 3.065.507s1.225 5.593 2.757 5.083c0 0 .715-.102.715-1.016l-.817-4.473s3.166-1.625 2.757-3.456zm-68.842-25.514s4.086.61 8.07-.203c0-.001-4.106 2.909-8.07.203zm2.349 37.878c4.494.407 7.252-.508 7.252-.508-2.627 2.597-7.253.507-7.252.508zm7.967-2.707l-1.634-34.971s1.772 15.671 1.772 17.297c0 1.627.27 13.708-.138 17.673zm43.896-25.88c-.513-1.929-2.529-15.9-2.529-15.9l6.639 29.682c-1.225-2.54-3.602-11.85-4.11-13.783zm-.384-15.798s-3.862-.179-1.9-2.296c.196-.261.471-.448.471-.448-.184.158-.34.308-.471.448-.324.432-.432 1.065 1.288 1.382 2.758.509 7.252-1.728 7.252-1.728s-1.151 2.13-6.64 2.642zm6.639 33.306c3.881 1.322 7.559-1.222 7.559-1.222-3.764 4.559-7.559 1.222-7.559 1.222z" fill="#0038b8"/></svg>